<?xml version="1.0" encoding="UTF-8" standalone="no"?>
<svg
   xmlns:dc="http://purl.org/dc/elements/1.1/"
   xmlns:cc="http://creativecommons.org/ns#"
   xmlns:rdf="http://www.w3.org/1999/02/22-rdf-syntax-ns#"
   xmlns:svg="http://www.w3.org/2000/svg"
   xmlns="http://www.w3.org/2000/svg"
   xmlns:sodipodi="http://sodipodi.sourceforge.net/DTD/sodipodi-0.dtd"
   xmlns:inkscape="http://www.inkscape.org/namespaces/inkscape"
   inkscape:version="1.0 (4035a4fb49, 2020-05-01)"
   sodipodi:docname="circuito-elettrico.svg"
   version="1.1"
   id="svg2"
   xml:space="preserve"
   width="794"
   height="1122.5601"
   viewBox="0 0 794 1122.5601"><sodipodi:namedview
     inkscape:current-layer="g26"
     inkscape:window-maximized="1"
     inkscape:window-y="-8"
     inkscape:window-x="-8"
     inkscape:cy="584.82552"
     inkscape:cx="793.19735"
     inkscape:zoom="0.61580177"
     showgrid="false"
     id="namedview19"
     inkscape:window-height="1017"
     inkscape:window-width="1920"
     inkscape:pageshadow="2"
     inkscape:pageopacity="0"
     guidetolerance="10"
     gridtolerance="10"
     objecttolerance="10"
     borderopacity="1"
     bordercolor="#666666"
     pagecolor="#ffffff" /><metadata
     id="metadata8"><rdf:RDF><cc:Work
         rdf:about=""><dc:format>image/svg+xml</dc:format><dc:type
           rdf:resource="http://purl.org/dc/dcmitype/StillImage" /></cc:Work></rdf:RDF></metadata><defs
     id="defs6"><clipPath
       clipPathUnits="userSpaceOnUse"
       id="clipPath18"><path
         d="M 0,115.625 H 2481.25 V 3393.75 H 0 Z"
         id="path16"
         style="clip-rule:evenodd" /></clipPath><clipPath
       clipPathUnits="userSpaceOnUse"
       id="clipPath32"><path
         d="m 21.875,115.625 h 2437.5 v 2437.5 H 21.875 Z"
         id="path30"
         style="clip-rule:evenodd" /></clipPath></defs><g
     id="g10"
     transform="matrix(0.31999998,0,0,0.31999998,0,5.4730666e-5)"><g
       transform="translate(-1035.6954,348.41365)"
       id="g12"><g
         transform="translate(-143.18369,38.182317)"
         id="g14"
         clip-path="url(#clipPath18)"><g
           id="g20"
           transform="matrix(3.125,0,0,3.125,0,115.625)" /></g></g><g
       transform="translate(23.863948,205.22996)"
       id="g26"><g
         transform="rotate(180,1237.3289,1307.2149)"
         id="g28"
         clip-path="url(#clipPath32)"><g
           id="g34"
           transform="matrix(5.4981503,0,0,5.4981503,-134.82228,-41.072281)"><path
             d="m 40.15933,408.64999 c 0,-3.25 -2.650001,-5.89999 -5.900001,-5.89999 -3.25,0 -5.900002,2.64999 -5.900002,5.89999 0,2.91001 2.119999,5.34 4.900002,5.82001 v 30.19 c 0,0.32999 0.139999,0.59 0.34,0.76001 l 21.249996,21.25 c 0.239998,0.23999 0.529999,0.32001 0.790001,0.29001 H 174.64933 c 0.33,0 0.58999,-0.14001 0.75999,-0.33999 l 36.41,-36.41001 h 104.15999 c 0.45002,1.72 2.01999,3 3.87,3 2.20001,0 4,-1.79999 4,-4 0,-2.20001 -1.79999,-4 -4,-4 -1.85999,0 -3.42999,1.28 -3.87,3 H 211.51934 c -0.21001,-0.02 -0.44001,0.02 -0.66001,0.16001 -0.06,0.04 -0.11,0.08 -0.16,0.13 l -36.46001,36.45999 H 55.969336 L 35.259337,444.25003 v -29.76999 c 2.779995,-0.49005 4.899993,-2.92004 4.899993,-5.83005 m 216.10001,10.70002 c 3.25,0 5.9,-2.65 5.9,-5.9 0,-3.25 -2.65,-5.89999 -5.9,-5.89999 -2.91,0 -5.33999,2.11999 -5.82001,4.89999 h -79.38999 c -0.28,0 -0.53,0.10999 -0.71001,0.29001 l -35.41001,35.41 H 70.669333 L 54.009329,431.48001 v -48.19 l 63.819991,-58.34 c 0.25,-0.22 0.35,-0.51999 0.33,-0.79999 v -80.83 c 1.72,-0.44999 3,-2.02 3,-3.86999 0,-2.2 -1.8,-4 -4,-4 -2.2,0 -4,1.8 -4,4 0,1.86 1.28,3.42999 3,3.86999 v 80.45 l -63.759992,58.28 c -0.139999,0.10998 -0.260002,0.26999 -0.339996,0.48999 -0.03,0.1 -0.05,0.19 -0.05,0.29999 v 48.94 c -0.03,0.20999 0.02,0.44 0.160004,0.67001 0.04,0.06 0.08,0.10999 0.129997,0.16001 l 17.25,17.25 c 0.18,0.17999 0.43,0.29 0.709999,0.29 h 64.989998 c 0.21001,0.03 0.44,-0.02 0.66001,-0.16 0.06,-0.04 0.11,-0.08 0.16,-0.13 l 35.41,-35.41001 h 78.97 c 0.46998,2.78 2.9,4.9 5.81,4.9 z M 102.82933,280.38 c 2.83,1.64002 6.40999,0.65 8.05999,-2.16 1.62001,-2.82999 0.66001,-6.42999 -2.16,-8.06 -2.53,-1.45999 -5.67,-0.82998 -7.48,1.34 l -3.139998,-1.82001 v -40.97 c 1.72,-0.45 2.999998,-2.02 2.999998,-3.86999 0,-2.2 -1.799998,-4 -3.999998,-4 -2.2,0 -4,1.8 -4,4 0,1.86 1.28,3.42999 3,3.86999 V 270.19 c -0.03,0.28 0.07,0.57001 0.32,0.81 0.05,0.05 0.11,0.09 0.18,0.13 l 3.639998,2.10001 c -0.969988,2.63999 0.05,5.67999 2.58001,7.14999 z M 69.459334,424.85001 c 0,3.25 2.650001,5.89999 5.900001,5.89999 3.25,0 5.900002,-2.64999 5.900002,-5.89999 0,-2.91001 -2.120003,-5.34 -4.900002,-5.82001 v -29.17001 l 65.710005,-65.71 c 0.24,-0.23999 0.32001,-0.52999 0.28999,-0.79 v -25.44001 c 1.72,-0.45001 3,-2.01999 3,-3.86999 0,-2.20001 -1.8,-4 -4,-4 -2.19999,0 -4,1.79999 -4,4 0,1.85998 1.28,3.42999 3,3.86999 v 25.10999 l -65.659999,65.66 c -0.120002,0.10999 -0.230003,0.26001 -0.300003,0.45001 -0.03,0.10001 -0.05,0.19001 -0.05,0.29999 v 29.57999 c -2.769996,0.49005 -4.889991,2.92004 -4.889991,5.83005 z M 38.289332,323.10999 c 0,3.25 2.650001,5.89999 5.900001,5.89999 3.25,0 5.899998,-2.64999 5.899998,-5.89999 0,-2.91001 -2.119999,-5.34 -4.900002,-5.82001 V 36.32 c 1.720001,-0.450001 3,-2.020001 3,-3.869999 0,-2.200001 -1.799999,-4 -4,-4 -2.200001,0 -4,1.799999 -4,4 0,1.86 1.279999,3.43 3,3.869999 v 280.97001 c -2.769996,0.47998 -4.899997,2.91 -4.899997,5.81998 z M 220.62934,441.67001 c -3.25,0 -5.9,2.65 -5.9,5.9 0,3.25 2.65,5.89999 5.9,5.89999 2.91,0 5.33999,-2.11999 5.82,-4.89999 h 221.53998 c 0.45001,1.72 2.01999,3 3.87,3 2.20001,0 4,-1.79999 4,-4 0,-2.20001 -1.79999,-4 -4,-4 -1.85999,0 -3.42999,1.28 -3.87,3 H 226.44933 c -0.48,-2.77002 -2.89999,-4.9 -5.81999,-4.9 z M 314.46933,372.88 c -1.64999,-2.82 -5.22,-3.79 -8.05999,-2.16 -1.57001,0.92001 -2.57001,2.45001 -2.85999,4.10999 h -77.85001 c -0.27999,-0.03 -0.57,0.07 -0.80999,0.32 -0.05,0.05 -0.10001,0.10999 -0.13001,0.18 L 213.97933,394 h -48.66001 c -0.21,-0.02 -0.44,0.02 -0.66999,0.16 -0.06,0.04 -0.11,0.08 -0.16001,0.13001 l -35.56,35.56 H 97.939332 V 400.06 c 2.779998,-0.48001 4.899998,-2.9 4.899998,-5.82001 0,-3.25 -2.65,-5.89999 -5.899998,-5.89999 -3.25,0 -5.9,2.64999 -5.9,5.89999 0,2.91 2.12,5.34 4.9,5.82001 v 30.79001 c 0,0.61999 0.49,0.98999 1,1 h 32.399998 c 0.33,0 0.58999,-0.14002 0.75999,-0.34 L 165.61933,396 h 48.94 c 0.41,0 0.7,-0.20999 0.86,-0.5 l 10.78,-18.66 h 77.33998 c 0.10999,0.67001 0.35001,1.32998 0.70999,1.95001 1.48001,2.53 4.5,3.56 7.15,2.57999 l 14.44,25.01998 c 0.19,0.35001 0.53,0.5 0.85998,0.5 h 54.38001 c 0.45001,1.72001 2.01999,3 3.86999,3 2.20002,0 4,-1.79998 4,-4 0,-2.20001 -1.79998,-4 -4,-4 -1.85998,0 -3.42999,1.28 -3.86999,3 H 327.2793 L 313.1193,380.37 c 2.18002,-1.82001 2.81003,-4.94999 1.35003,-7.49 z M 12.759333,465.64999 c 0,3.25 2.649999,5.9 5.900001,5.9 3.25,0 5.900002,-2.65 5.900002,-5.9 0,-2.91 -2.119999,-5.33999 -4.900002,-5.82 V 375.5 l 50.720005,-43.59 c 0.25,-0.22 0.360001,-0.51001 0.349999,-0.78 V 211.66 c 1.150001,-0.19999 2.260002,-0.75 3.169998,-1.64 2.07,-2.11 2.279999,-5.25 0.639999,-7.57 l 29.760005,-29.76 c 0.23999,-0.24 0.32,-0.53 0.29,-0.78999 v -51.28 c 1.72,-0.45 3,-2.02 3,-3.87 0,-2.2 -1.80001,-4 -4,-4 -2.2,0 -3.999998,1.8 -3.999998,4 0,1.86 1.279998,3.43 2.999998,3.87 v 50.95 l -29.470003,29.47 c -2.32,-1.64 -5.470001,-1.42 -7.57,0.64 -2.300003,2.35 -2.300003,5.99 0,8.35 0.910004,0.89 2.019997,1.44001 3.169999,1.64 v 119.04001 l -50.66,43.53 c -0.16,0.10999 -0.279999,0.28 -0.360001,0.51001 -0.03,0.10001 -0.05,0.19 -0.05,0.29999 v 84.79001 c -2.770003,0.46997 -4.890002,2.89996 -4.890002,5.80996 z"
             style="fill:#164194;fill-opacity:1;fill-rule:nonzero;stroke:none"
             id="path36" /></g></g><path
         id="path36-6"
         style="fill:#164194;fill-opacity:1;fill-rule:nonzero;stroke:none;stroke-width:5.49816"
         d="m 120.95876,2418.6652 c 0,-17.869 -14.57011,-32.4391 -32.439097,-32.4391 -17.868989,0 -32.439099,14.5701 -32.439099,32.4391 0,15.9997 11.656072,29.3601 26.940948,31.9992 v 165.9892 c 0,1.8144 0.769735,3.2439 1.869372,4.1787 L 201.72656,2737.668 c 1.31954,1.3195 2.91401,1.7594 4.34354,1.5945 h 654.33491 c 1.81437,0 3.24384,-0.7698 4.17853,-1.8693 l 200.18766,-200.1877 h 572.6873 c 2.4743,9.4568 11.1062,16.4944 21.2778,16.4944 12.096,0 21.9926,-9.8966 21.9926,-21.9926 0,-12.096 -9.8966,-21.9926 -21.9926,-21.9926 -10.2265,0 -18.8586,7.0376 -21.2778,16.4945 h -574.3366 c -1.1547,-0.11 -2.4193,0.11 -3.6289,0.8797 -0.3299,0.22 -0.6048,0.4399 -0.8797,0.7148 L 858.15069,2728.2662 H 207.88454 L 94.017857,2614.3995 v -163.6798 c 15.284833,-2.6944 26.940903,-16.0548 26.940903,-32.0545 m 1188.15034,58.8303 c 17.869,0 32.4391,-14.5701 32.4391,-32.4391 0,-17.869 -14.5701,-32.439 -32.4391,-32.439 -15.9996,0 -29.3601,11.656 -31.9993,26.9409 H 840.61173 c -1.5395,0 -2.91404,0.6047 -3.90376,1.5945 L 642.01843,2635.8423 H 288.70735 l -91.59922,-91.6543 v -264.9558 l 350.89192,-320.7621 c 1.37453,-1.2096 1.92434,-2.859 1.81438,-4.3985 v -444.4154 c 9.45684,-2.4741 16.49447,-11.1063 16.49447,-21.2778 0,-12.0959 -9.89669,-21.9926 -21.9926,-21.9926 -12.09594,0 -21.99263,9.8967 -21.99263,21.9926 0,10.2266 7.03766,18.8586 16.49447,21.2778 v 442.3261 L 188.2561,2272.4145 c -0.76973,0.6047 -1.42953,1.4845 -1.86934,2.6941 -0.16494,0.5498 -0.27491,1.0446 -0.27491,1.6494 v 269.0795 c -0.16494,1.1545 0.10997,2.4191 0.87973,3.6838 0.21994,0.3298 0.43985,0.6047 0.71474,0.8797 l 94.84309,94.8431 c 0.98966,0.9896 2.36422,1.5945 3.90369,1.5945 h 357.32477 c 1.15469,0.165 2.41919,-0.11 3.62884,-0.8797 0.32991,-0.22 0.60482,-0.4399 0.87972,-0.7148 l 194.68948,-194.6896 h 434.18889 c 2.5841,15.2849 15.9447,26.941 31.9443,26.941 z m -843.58124,-764.078 c 15.55975,9.0171 35.24306,3.5738 44.31503,-11.876 8.90707,-15.5597 3.62881,-35.3531 -11.876,-44.3151 -13.91034,-8.0273 -31.17453,-4.5634 -41.12619,7.3675 l -17.26419,-10.0067 v -225.2591 c 9.45685,-2.4742 16.49447,-11.1063 16.49447,-21.2778 0,-12.096 -9.89669,-21.9927 -21.99259,-21.9927 -12.09594,0 -21.99263,9.8967 -21.99263,21.9927 0,10.2265 7.03766,18.8586 16.49447,21.2778 v 228.0632 c -0.165,1.5395 0.38488,3.134 1.75941,4.4535 0.275,0.275 0.60478,0.4949 0.98965,0.7148 l 20.01329,11.5462 c -5.33316,14.515 0.275,31.2294 14.18528,39.3117 z m -183.47328,794.3178 c 0,17.869 14.57011,32.4391 32.43908,32.4391 17.869,0 32.43913,-14.5701 32.43913,-32.4391 0,-15.9997 -11.65613,-29.3601 -26.94097,-31.9993 v -160.3811 l 361.28349,-361.2834 c 1.31956,-1.3195 1.75947,-2.914 1.59444,-4.3436 v -139.873 c 9.45681,-2.4742 16.49444,-11.1062 16.49444,-21.2777 0,-12.096 -9.89669,-21.9927 -21.9926,-21.9927 -12.09588,0 -21.9926,9.8967 -21.9926,21.9927 0,10.2264 7.03763,18.8585 16.49444,21.2777 v 138.0585 L 310.86488,2308.922 c -0.65978,0.6047 -1.26459,1.4296 -1.64947,2.4742 -0.165,0.5499 -0.275,1.0447 -0.275,1.6494 v 162.6352 c -15.22984,2.6944 -26.8859,16.0548 -26.8859,32.0545 z M 110.67722,1948.3534 c 0,17.869 14.57011,32.439 32.4391,32.439 17.86898,0 32.43907,-14.57 32.43907,-32.439 0,-15.9997 -11.65607,-29.3601 -26.94095,-31.9993 V 371.53895 c 9.45683,-2.47418 16.49446,-11.10627 16.49446,-21.27784 0,-12.09594 -9.89667,-21.9926 -21.99261,-21.9926 -12.09593,0 -21.9926,9.89666 -21.9926,21.9926 0,10.22656 7.03763,18.85865 16.49445,21.27784 V 1916.3543 c -15.22985,2.639 -26.94092,15.9996 -26.94092,31.9991 z M 1113.21,2600.2142 c -17.869,0 -32.4391,14.5701 -32.4391,32.4391 0,17.869 14.5701,32.439 32.4391,32.439 15.9996,0 29.3601,-11.656 31.9992,-26.9409 h 1218.0602 c 2.4742,9.4569 11.1062,16.4945 21.2778,16.4945 12.096,0 21.9926,-9.8966 21.9926,-21.9926 0,-12.096 -9.8966,-21.9926 -21.9926,-21.9926 -10.2265,0 -18.8586,7.0376 -21.2778,16.4944 H 1145.2092 c -2.6391,-15.23 -15.9446,-26.9409 -31.9992,-26.9409 z m 515.9464,-378.2178 c -9.0719,-15.5048 -28.7003,-20.838 -44.315,-11.876 -8.6322,5.0583 -14.1303,13.4705 -15.7247,22.5973 h -428.031 c -1.5395,-0.165 -3.134,0.3849 -4.4535,1.7594 -0.275,0.275 -0.5499,0.6048 -0.7148,0.9897 l -59.2701,102.6505 H 809.10722 c -1.15462,-0.11 -2.41918,0.11 -3.68372,0.8797 -0.3299,0.22 -0.60481,0.4399 -0.87975,0.7148 L 609.02952,2535.2261 H 438.64189 v -163.79 c 15.28487,-2.6392 26.94094,-15.9446 26.94094,-31.9993 0,-17.869 -14.5701,-32.439 -32.4391,-32.439 -17.86897,0 -32.43906,14.57 -32.43906,32.439 0,15.9996 11.65606,29.3601 26.94094,31.9993 v 169.2881 c 0,3.4088 2.69409,5.4431 5.49812,5.4982 H 611.2838 c 1.81441,0 3.24388,-0.7699 4.17857,-1.8694 l 195.29435,-195.2394 h 269.07948 c 2.2542,0 3.8487,-1.1545 4.7284,-2.7491 l 59.2701,-102.5954 h 425.2268 c 0.6047,3.6838 1.9244,7.3124 3.9036,10.7214 8.1373,13.9103 24.7417,19.5734 39.3118,14.1852 l 79.3933,137.5636 c 1.0446,1.9244 2.914,2.7491 4.7283,2.7491 h 298.9895 c 2.4742,9.4569 11.1062,16.4944 21.2777,16.4944 12.0961,0 21.9927,-9.8965 21.9927,-21.9926 0,-12.096 -9.8966,-21.9926 -21.9927,-21.9926 -10.2264,0 -18.8586,7.0377 -21.2777,16.4945 h -295.8005 l -77.8538,-134.8146 c 11.9861,-10.0067 15.45,-27.2158 7.4227,-41.1811 z M -29.690548,2732.0597 c 0,17.869 14.570093,32.4391 32.4390931,32.4391 17.8689879,0 32.4390989,-14.5701 32.4390989,-32.4391 0,-15.9996 -11.656076,-29.36 -26.9409486,-31.9992 v -463.659 L 287.11291,1996.7372 c 1.37453,-1.2096 1.97934,-2.8042 1.92434,-4.2886 v -656.864 c 6.32288,-1.0996 12.42585,-4.1236 17.42913,-9.0169 11.38116,-11.6011 12.53578,-28.8653 3.51881,-41.621 l 163.62498,-163.625 c 1.3195,-1.3195 1.75941,-2.914 1.59447,-4.3435 V 835.03307 c 9.45681,-2.47415 16.49447,-11.10625 16.49447,-21.27784 0,-12.09594 -9.89675,-21.9926 -21.99263,-21.9926 -12.0959,0 -21.99259,9.89666 -21.99259,21.9926 0,10.22656 7.03762,18.85865 16.49447,21.27784 v 280.13073 l -162.03054,162.0305 c -12.75569,-9.0169 -30.07488,-7.8074 -41.62099,3.5188 -12.64576,12.9207 -12.64576,32.934 0,45.9096 5.00334,4.8933 11.10625,7.9174 17.42913,9.017 v 654.4998 L -0.55033418,2229.474 c -0.87970412,0.6047 -1.53947672,1.5395 -1.97933982,2.8041 -0.1649438,0.5499 -0.2749063,1.0446 -0.2749063,1.6494 v 466.1882 c -15.2298947,2.584 -26.8859677,15.9444 -26.8859677,31.944 z" /></g></g></svg>
