<?xml version="1.0" encoding="UTF-8" standalone="no"?>
<svg
   xmlns:dc="http://purl.org/dc/elements/1.1/"
   xmlns:cc="http://creativecommons.org/ns#"
   xmlns:rdf="http://www.w3.org/1999/02/22-rdf-syntax-ns#"
   xmlns:svg="http://www.w3.org/2000/svg"
   xmlns="http://www.w3.org/2000/svg"
   xmlns:sodipodi="http://sodipodi.sourceforge.net/DTD/sodipodi-0.dtd"
   xmlns:inkscape="http://www.inkscape.org/namespaces/inkscape"
   inkscape:version="1.0 (4035a4fb49, 2020-05-01)"
   sodipodi:docname="ElettroS.svg"
   viewBox="0 0 1122.52 793.70135"
   height="793.70135"
   width="1122.52"
   id="svg2"
   version="1.1">
  <metadata
     id="metadata187">
    <rdf:RDF>
      <cc:Work
         rdf:about="">
        <dc:format>image/svg+xml</dc:format>
        <dc:type
           rdf:resource="http://purl.org/dc/dcmitype/StillImage" />
        <dc:title></dc:title>
      </cc:Work>
    </rdf:RDF>
  </metadata>
  <sodipodi:namedview
     inkscape:current-layer="g8"
     inkscape:window-maximized="1"
     inkscape:window-y="-8"
     inkscape:window-x="-8"
     inkscape:cy="353.65605"
     inkscape:cx="561.26001"
     inkscape:zoom="0.926041"
     showgrid="false"
     id="namedview185"
     inkscape:window-height="1017"
     inkscape:window-width="1920"
     inkscape:pageshadow="2"
     inkscape:pageopacity="0"
     guidetolerance="10"
     gridtolerance="10"
     objecttolerance="10"
     borderopacity="1"
     bordercolor="#666666"
     pagecolor="#ffffff" />
  <defs
     id="defs6">
    <clipPath
       id="clipPath16"
       clipPathUnits="userSpaceOnUse">
      <path
         id="path14"
         d="m 350.539,297.341 c 0,-16.465 31.32,-29.811 69.956,-29.811 v 0 c 38.636,0 69.956,13.346 69.956,29.811 v 0 c 0,16.465 -31.32,29.812 -69.956,29.812 v 0 c -38.636,0 -69.956,-13.347 -69.956,-29.812" />
    </clipPath>
    <clipPath
       id="clipPath220"
       clipPathUnits="userSpaceOnUse">
      <path
         id="path218"
         d="M 0,595.276 H 841.89 V 0 H 0 Z" />
    </clipPath>
  </defs>
  <g
     transform="matrix(1.3333333,0,0,-1.3333333,0,793.70133)"
     id="g8">
    <g
       id="g10">
      <g
         clip-path="url(#clipPath16)"
         id="g12">
        <g
           transform="translate(490.5297,262.492)"
           id="g18">
          <path
             id="path20"
             style="fill:none;stroke:#2256ae;stroke-width:0.283;stroke-linecap:butt;stroke-linejoin:miter;stroke-miterlimit:3.864;stroke-dasharray:none;stroke-opacity:1"
             d="m 0,0 v 6.561 l 3.1,3.1 V 70.007 M 1.439,69.786 V 10.575 L -1.468,7.668 V 0 m -1.55,0 v 8.886 l 2.907,2.907 V 70.007 M -8.664,58.022 h 4.318 l 2.353,-2.354 V 23.447 l -2.464,-2.465 h -5.315 l -7.749,-7.75 V 0.222 M -18.907,0 v 14.118 l 7.778,7.779 v 27.875 l 3.682,3.682 m -5.121,16.553 V 22.893 l -8.11,-8.111 V 0.332 M -24.554,0.111 V 16 l 7.558,7.557 v 37.122 m -0.665,6.782 2.436,-2.436 V 23.114 l -7.447,-7.446 V 0.332 m 0.443,37.897 v 4.235 l 2.768,2.768 v 23.447 l -1.771,1.771 m -1.993,-0.332 2.214,-2.214 V 46.118 l -2.878,-2.878 v -7.779 m -24.997,27.211 -3.21,3.21 H -80 l -4.125,4.125 m -1.993,-0.11 5.564,-5.565 v -5.203 l 2.104,-2.104 h 32.221 l 2.104,2.104 v 4.318 m -40.664,1.217 -3.875,3.875 H -112 l -1.661,1.661 -0.11,-0.414 m -24.472,0.111 0.554,-0.554 h 22.228 l 2.547,-2.546 h 20.678 l 3.35,-3.35 m -51.793,6.56 1.661,-1.66 h 22.118 l 3.682,-3.683 h 15.086 l 1.328,-1.328 m -47.528,5.786 h 1.993 l 2.214,-2.215 h 22.229 l 5.564,-5.564 h 8.886 m 2.324,-1.993 h -11.21 l -6.672,6.671 h -22.45 l -1.992,1.993 h -1.218 m 0.11,-0.885 2.354,-2.354 h 22.2 l 7.446,-7.446 h 19.1 m 48,-8.997 h -23.778 l -6.893,6.893 h -36.096 l -7.115,7.114 m 9.329,-8.553 h 28.236 l 11.21,-11.211 h 24.886 m 3.904,-2.353 -1.247,1.246 h -28.761 l -10.575,10.575 h -32 l -0.885,0.886 m -7.447,3.182 5.675,-5.675 h 33.772 l 10.546,-10.547 h 21.896 m 10.908,-2.657 -3.682,-3.682 h -8.886 l -4.761,4.761 h -16.553 l -10.686,10.685 h -34.214 l -1.55,1.55 m -7.336,0.14 2.657,-2.657 h 39.557 l 10.686,-10.686 h 16.303 l 4.9,-4.9 h 11.793 l 4.54,4.539 m -0.997,-5.646 h -16.443 l -4.9,4.9 h -16.221 l -10.989,10.989 h -31.668 l -3.211,-3.211 m 1.882,-1.328 3.211,3.211 h 29.011 L -76.789,35.24 h 16.221 l 4.9,-4.901 h 20.539 m 11.24,-5.232 h -4.236 l -4.318,4.318 h -24.221 l -4.9,4.9 h -16.443 l -10.686,10.686 h -22.421 l -1.882,-1.882 m -9.8,-3.24 h 8.221 l 4.125,4.125 h 20.9 l 10.796,-10.796 h 16.304 l 4.982,-4.982 h 24.029 l 4.568,-4.568 h 3.1 m -102.561,17.218 3.1,-3.1 h 10.546 l 5.011,5.011 h 19.1 L -80,32.222 h 16.111 l 4.871,-4.872 h 23.557 l 4.347,-4.346 v -9.772 l -3.793,-3.793 m -3.1,14.672 -2.104,2.103 h -19.793 l -4.76,4.761 h -16.443 l -10.797,10.797 h -16.221 l -5.536,-5.536 h -12.568 m 76.347,-11.682 h -10.907 l -5.233,5.232 h -19.21 l -3.211,-3.211 h -46.782 l -1.439,1.439 v 3.1 l 1.992,1.993 m -1.549,4.015 -1.661,-1.661 v -8.554 l 1.439,-1.439 h 49.329 l 2.657,2.657 h 17.107 l 4.789,-4.789 h 16.997 m -90.99,27.903 1.8,-1.8 v -6.642 l -2.353,-2.354 h -4.457 l -2.547,-2.547 V 26.465 l 3.018,-3.018 h 65.411 l 2.768,-2.768 h 16.803 m -1.218,-1.661 h -16.553 l -2.797,2.797 h -65.55 l -2.435,2.435 m -0.111,-2.686 1.329,-1.328 h 65.328 l 2.907,-2.907 h 16.636 m -1.107,-1.44 h -16.664 l -3.322,3.322 h -64.886 m -0.11,-1.661 h 64.221 l 3.1,-3.1 h 26.657 l 3.322,-3.321 m 0.803,-6.893 v 1.439 l -7.557,7.557 h -24.443 l -2.989,2.99 h -63.004 m -0.11,-1.993 h 61.757 L -80,11.322 h 21.978 l 7.861,-7.861 v -3.35 m -8.968,4.9 -5.092,5.093 h -16.886 l -2.797,2.796 h -60.65 m -0.11,-1.55 h 59.543 l 3.017,-3.018 h 16.665 l 1.107,-1.107 m 2.436,-5.203 -4.54,4.539 H -83.35 l -3.432,3.432 h -57.993 m 12.318,-8.886 v 4.457 l 2.214,2.215 h 32.361 l 2.103,-2.104 V 0.332" />
        </g>
        <g
           transform="translate(393.4113,325.7719)"
           id="g22">
          <path
             id="path24"
             style="fill:#2256ae;fill-opacity:1;fill-rule:nonzero;stroke:none"
             d="M 0,0 C 0,0.266 0.215,0.481 0.481,0.481 0.746,0.481 0.962,0.266 0.962,0 0.962,-0.265 0.746,-0.481 0.481,-0.481 0.215,-0.481 0,-0.265 0,0" />
        </g>
        <g
           transform="translate(386.6531,323.9021)"
           id="g26">
          <path
             id="path28"
             style="fill:#2256ae;fill-opacity:1;fill-rule:nonzero;stroke:none"
             d="M 0,0 C 0,0.266 0.215,0.481 0.481,0.481 0.746,0.481 0.962,0.266 0.962,0 0.962,-0.266 0.746,-0.481 0.481,-0.481 0.215,-0.481 0,-0.266 0,0" />
        </g>
        <g
           transform="translate(389.2388,321.7981)"
           id="g30">
          <path
             id="path32"
             style="fill:#2256ae;fill-opacity:1;fill-rule:nonzero;stroke:none"
             d="M 0,0 C 0,0.266 0.215,0.481 0.481,0.481 0.747,0.481 0.962,0.266 0.962,0 0.962,-0.266 0.747,-0.481 0.481,-0.481 0.215,-0.481 0,-0.266 0,0" />
        </g>
        <g
           transform="translate(396.9907,319.8612)"
           id="g34">
          <path
             id="path36"
             style="fill:#2256ae;fill-opacity:1;fill-rule:nonzero;stroke:none"
             d="M 0,0 C 0,0.266 0.215,0.481 0.481,0.481 0.746,0.481 0.962,0.266 0.962,0 0.962,-0.266 0.746,-0.481 0.481,-0.481 0.215,-0.481 0,-0.266 0,0" />
        </g>
        <g
           transform="translate(401.1483,326.0059)"
           id="g38">
          <path
             id="path40"
             style="fill:#2256ae;fill-opacity:1;fill-rule:nonzero;stroke:none"
             d="M 0,0 C 0,0.266 0.215,0.481 0.481,0.481 0.746,0.481 0.962,0.266 0.962,0 0.962,-0.266 0.746,-0.481 0.481,-0.481 0.215,-0.481 0,-0.266 0,0" />
        </g>
        <g
           transform="translate(405.1804,327.0577)"
           id="g42">
          <path
             id="path44"
             style="fill:#2256ae;fill-opacity:1;fill-rule:nonzero;stroke:none"
             d="M 0,0 C 0,0.266 0.215,0.481 0.481,0.481 0.746,0.481 0.962,0.266 0.962,0 0.962,-0.266 0.746,-0.481 0.481,-0.481 0.215,-0.481 0,-0.266 0,0" />
        </g>
        <g
           transform="translate(370.553,324.9237)"
           id="g46">
          <path
             id="path48"
             style="fill:#2256ae;fill-opacity:1;fill-rule:nonzero;stroke:none"
             d="M 0,0 C 0,0.266 0.215,0.481 0.481,0.481 0.746,0.481 0.962,0.266 0.962,0 0.962,-0.266 0.746,-0.481 0.481,-0.481 0.215,-0.481 0,-0.266 0,0" />
        </g>
        <g
           transform="translate(367.0531,318.6737)"
           id="g50">
          <path
             id="path52"
             style="fill:#2256ae;fill-opacity:1;fill-rule:nonzero;stroke:none"
             d="M 0,0 C 0,0.266 0.215,0.481 0.481,0.481 0.746,0.481 0.962,0.266 0.962,0 0.962,-0.266 0.746,-0.481 0.481,-0.481 0.215,-0.481 0,-0.266 0,0" />
        </g>
        <g
           transform="translate(374.5531,315.6113)"
           id="g54">
          <path
             id="path56"
             style="fill:#2256ae;fill-opacity:1;fill-rule:nonzero;stroke:none"
             d="M 0,0 C 0,0.266 0.215,0.481 0.481,0.481 0.746,0.481 0.962,0.266 0.962,0 0.962,-0.266 0.746,-0.481 0.481,-0.481 0.215,-0.481 0,-0.266 0,0" />
        </g>
        <g
           transform="translate(379.928,316.1738)"
           id="g58">
          <path
             id="path60"
             style="fill:#2256ae;fill-opacity:1;fill-rule:nonzero;stroke:none"
             d="M 0,0 C 0,0.266 0.215,0.481 0.481,0.481 0.746,0.481 0.962,0.266 0.962,0 0.962,-0.266 0.746,-0.481 0.481,-0.481 0.215,-0.481 0,-0.266 0,0" />
        </g>
        <g
           transform="translate(369.5531,313.1738)"
           id="g62">
          <path
             id="path64"
             style="fill:#2256ae;fill-opacity:1;fill-rule:nonzero;stroke:none"
             d="M 0,0 C 0,0.266 0.215,0.481 0.481,0.481 0.746,0.481 0.962,0.266 0.962,0 0.962,-0.266 0.746,-0.481 0.481,-0.481 0.215,-0.481 0,-0.266 0,0" />
        </g>
        <g
           transform="translate(362.6156,313.2362)"
           id="g66">
          <path
             id="path68"
             style="fill:#2256ae;fill-opacity:1;fill-rule:nonzero;stroke:none"
             d="M 0,0 C 0,0.266 0.215,0.481 0.481,0.481 0.746,0.481 0.962,0.266 0.962,0 0.962,-0.266 0.746,-0.481 0.481,-0.481 0.215,-0.481 0,-0.266 0,0" />
        </g>
        <g
           transform="translate(368.303,306.2987)"
           id="g70">
          <path
             id="path72"
             style="fill:#2256ae;fill-opacity:1;fill-rule:nonzero;stroke:none"
             d="M 0,0 C 0,0.266 0.215,0.481 0.481,0.481 0.746,0.481 0.962,0.266 0.962,0 0.962,-0.266 0.746,-0.481 0.481,-0.481 0.215,-0.481 0,-0.266 0,0" />
        </g>
        <g
           transform="translate(370.3031,305.1737)"
           id="g74">
          <path
             id="path76"
             style="fill:#2256ae;fill-opacity:1;fill-rule:nonzero;stroke:none"
             d="M 0,0 C 0,0.266 0.215,0.481 0.481,0.481 0.746,0.481 0.962,0.266 0.962,0 0.962,-0.266 0.746,-0.481 0.481,-0.481 0.215,-0.481 0,-0.266 0,0" />
        </g>
        <g
           transform="translate(376.928,305.3612)"
           id="g78">
          <path
             id="path80"
             style="fill:#2256ae;fill-opacity:1;fill-rule:nonzero;stroke:none"
             d="M 0,0 C 0,0.266 0.215,0.481 0.481,0.481 0.746,0.481 0.962,0.266 0.962,0 0.962,-0.266 0.746,-0.481 0.481,-0.481 0.215,-0.481 0,-0.266 0,0" />
        </g>
        <g
           transform="translate(367.0531,302.4863)"
           id="g82">
          <path
             id="path84"
             style="fill:#2256ae;fill-opacity:1;fill-rule:nonzero;stroke:none"
             d="M 0,0 C 0,0.266 0.215,0.481 0.481,0.481 0.746,0.481 0.962,0.266 0.962,0 0.962,-0.266 0.746,-0.481 0.481,-0.481 0.215,-0.481 0,-0.266 0,0" />
        </g>
        <g
           transform="translate(363.8076,298.7987)"
           id="g86">
          <path
             id="path88"
             style="fill:#2256ae;fill-opacity:1;fill-rule:nonzero;stroke:none"
             d="M 0,0 C 0,0.266 0.215,0.481 0.481,0.481 0.746,0.481 0.962,0.266 0.962,0 0.962,-0.266 0.746,-0.481 0.481,-0.481 0.215,-0.481 0,-0.266 0,0" />
        </g>
        <g
           transform="translate(361.6491,303.5778)"
           id="g90">
          <path
             id="path92"
             style="fill:#2256ae;fill-opacity:1;fill-rule:nonzero;stroke:none"
             d="M 0,0 C 0,0.265 0.215,0.481 0.481,0.481 0.746,0.481 0.962,0.265 0.962,0 0.962,-0.266 0.746,-0.481 0.481,-0.481 0.215,-0.481 0,-0.266 0,0" />
        </g>
        <g
           transform="translate(354.0241,299.7652)"
           id="g94">
          <path
             id="path96"
             style="fill:#2256ae;fill-opacity:1;fill-rule:nonzero;stroke:none"
             d="M 0,0 C 0,0.266 0.215,0.481 0.481,0.481 0.746,0.481 0.962,0.266 0.962,0 0.962,-0.266 0.746,-0.481 0.481,-0.481 0.215,-0.481 0,-0.266 0,0" />
        </g>
        <g
           transform="translate(355.4616,295.7652)"
           id="g98">
          <path
             id="path100"
             style="fill:#2256ae;fill-opacity:1;fill-rule:nonzero;stroke:none"
             d="M 0,0 C 0,0.266 0.215,0.481 0.481,0.481 0.746,0.481 0.962,0.266 0.962,0 0.962,-0.266 0.746,-0.481 0.481,-0.481 0.215,-0.481 0,-0.266 0,0" />
        </g>
        <g
           transform="translate(353.3367,313.8903)"
           id="g102">
          <path
             id="path104"
             style="fill:#2256ae;fill-opacity:1;fill-rule:nonzero;stroke:none"
             d="M 0,0 C 0,0.265 0.215,0.481 0.481,0.481 0.746,0.481 0.962,0.265 0.962,0 0.962,-0.266 0.746,-0.481 0.481,-0.481 0.215,-0.481 0,-0.266 0,0" />
        </g>
        <g
           transform="translate(434.1299,283.0255)"
           id="g106">
          <path
             id="path108"
             style="fill:#2256ae;fill-opacity:1;fill-rule:nonzero;stroke:none"
             d="m 0,0 c 0,0.266 0.215,0.481 0.481,0.481 0.265,0 0.48,-0.215 0.48,-0.481 0,-0.266 -0.215,-0.481 -0.48,-0.481 C 0.215,-0.481 0,-0.266 0,0" />
        </g>
        <g
           transform="translate(433.02,281.3873)"
           id="g110">
          <path
             id="path112"
             style="fill:#2256ae;fill-opacity:1;fill-rule:nonzero;stroke:none"
             d="M 0,0 C 0,0.265 0.215,0.481 0.481,0.481 0.746,0.481 0.962,0.265 0.962,0 0.962,-0.266 0.746,-0.481 0.481,-0.481 0.215,-0.481 0,-0.266 0,0" />
        </g>
        <g
           transform="translate(431.7314,279.8343)"
           id="g114">
          <path
             id="path116"
             style="fill:#2256ae;fill-opacity:1;fill-rule:nonzero;stroke:none"
             d="M 0,0 C 0,0.265 0.215,0.481 0.481,0.481 0.746,0.481 0.962,0.265 0.962,0 0.962,-0.266 0.746,-0.481 0.481,-0.481 0.215,-0.481 0,-0.266 0,0" />
        </g>
        <g
           transform="translate(430.6216,278.3018)"
           id="g118">
          <path
             id="path120"
             style="fill:#2256ae;fill-opacity:1;fill-rule:nonzero;stroke:none"
             d="M 0,0 C 0,0.266 0.215,0.481 0.481,0.481 0.746,0.481 0.962,0.266 0.962,0 0.962,-0.266 0.746,-0.481 0.481,-0.481 0.215,-0.481 0,-0.266 0,0" />
        </g>
        <g
           transform="translate(425.9714,269.5091)"
           id="g122">
          <path
             id="path124"
             style="fill:#2256ae;fill-opacity:1;fill-rule:nonzero;stroke:none"
             d="M 0,0 C 0,0.266 0.215,0.481 0.481,0.481 0.746,0.481 0.962,0.266 0.962,0 0.962,-0.265 0.746,-0.481 0.481,-0.481 0.215,-0.481 0,-0.265 0,0" />
        </g>
        <g
           transform="translate(430.9915,267.3954)"
           id="g126">
          <path
             id="path128"
             style="fill:#2256ae;fill-opacity:1;fill-rule:nonzero;stroke:none"
             d="M 0,0 C 0,0.265 0.215,0.481 0.481,0.481 0.746,0.481 0.962,0.265 0.962,0 0.962,-0.266 0.746,-0.481 0.481,-0.481 0.215,-0.481 0,-0.266 0,0" />
        </g>
        <g
           transform="translate(442.8696,273.3873)"
           id="g130">
          <path
             id="path132"
             style="fill:#2256ae;fill-opacity:1;fill-rule:nonzero;stroke:none"
             d="M 0,0 C 0,0.266 0.215,0.481 0.481,0.481 0.746,0.481 0.962,0.266 0.962,0 0.962,-0.266 0.746,-0.481 0.481,-0.481 0.215,-0.481 0,-0.266 0,0" />
        </g>
        <g
           transform="translate(455.2558,271.8871)"
           id="g134">
          <path
             id="path136"
             style="fill:#2256ae;fill-opacity:1;fill-rule:nonzero;stroke:none"
             d="M 0,0 C 0,0.266 0.215,0.481 0.481,0.481 0.746,0.481 0.962,0.266 0.962,0 0.962,-0.266 0.746,-0.481 0.481,-0.481 0.215,-0.481 0,-0.266 0,0" />
        </g>
        <g
           transform="translate(444.772,285.7733)"
           id="g138">
          <path
             id="path140"
             style="fill:#2256ae;fill-opacity:1;fill-rule:nonzero;stroke:none"
             d="M 0,0 C 0,0.266 0.215,0.481 0.481,0.481 0.746,0.481 0.962,0.266 0.962,0 0.962,-0.266 0.746,-0.481 0.481,-0.481 0.215,-0.481 0,-0.266 0,0" />
        </g>
        <g
           transform="translate(440.4386,286.9887)"
           id="g142">
          <path
             id="path144"
             style="fill:#2256ae;fill-opacity:1;fill-rule:nonzero;stroke:none"
             d="M 0,0 C 0,0.266 0.215,0.481 0.481,0.481 0.746,0.481 0.962,0.266 0.962,0 0.962,-0.266 0.746,-0.481 0.481,-0.481 0.215,-0.481 0,-0.266 0,0" />
        </g>
        <g
           transform="translate(452.1907,286.4075)"
           id="g146">
          <path
             id="path148"
             style="fill:#2256ae;fill-opacity:1;fill-rule:nonzero;stroke:none"
             d="M 0,0 C 0,0.266 0.215,0.481 0.481,0.481 0.746,0.481 0.962,0.266 0.962,0 0.962,-0.266 0.746,-0.481 0.481,-0.481 0.215,-0.481 0,-0.266 0,0" />
        </g>
        <g
           transform="translate(464.65,286.2491)"
           id="g150">
          <path
             id="path152"
             style="fill:#2256ae;fill-opacity:1;fill-rule:nonzero;stroke:none"
             d="M 0,0 C 0,0.265 0.215,0.481 0.481,0.481 0.746,0.481 0.962,0.265 0.962,0 0.962,-0.266 0.746,-0.481 0.481,-0.481 0.215,-0.481 0,-0.266 0,0" />
        </g>
        <g
           transform="translate(466.394,287.57)"
           id="g154">
          <path
             id="path156"
             style="fill:#2256ae;fill-opacity:1;fill-rule:nonzero;stroke:none"
             d="M 0,0 C 0,0.266 0.215,0.481 0.481,0.481 0.746,0.481 0.962,0.266 0.962,0 0.962,-0.266 0.746,-0.481 0.481,-0.481 0.215,-0.481 0,-0.266 0,0" />
        </g>
        <g
           transform="translate(455.1501,292.9805)"
           id="g158">
          <path
             id="path160"
             style="fill:#2256ae;fill-opacity:1;fill-rule:nonzero;stroke:none"
             d="M 0,0 C 0,0.266 0.215,0.481 0.481,0.481 0.746,0.481 0.962,0.266 0.962,0 0.962,-0.265 0.746,-0.481 0.481,-0.481 0.215,-0.481 0,-0.265 0,0" />
        </g>
        <g
           transform="translate(452.0322,293.8792)"
           id="g162">
          <path
             id="path164"
             style="fill:#2256ae;fill-opacity:1;fill-rule:nonzero;stroke:none"
             d="M 0,0 C 0,0.266 0.215,0.481 0.481,0.481 0.746,0.481 0.962,0.266 0.962,0 0.962,-0.266 0.746,-0.481 0.481,-0.481 0.215,-0.481 0,-0.266 0,0" />
        </g>
        <g
           transform="translate(453.142,299.6595)"
           id="g166">
          <path
             id="path168"
             style="fill:#2256ae;fill-opacity:1;fill-rule:nonzero;stroke:none"
             d="M 0,0 C 0,0.266 0.215,0.481 0.481,0.481 0.746,0.481 0.962,0.266 0.962,0 0.962,-0.265 0.746,-0.481 0.481,-0.481 0.215,-0.481 0,-0.265 0,0" />
        </g>
        <g
           transform="translate(450.3412,299.9766)"
           id="g170">
          <path
             id="path172"
             style="fill:#2256ae;fill-opacity:1;fill-rule:nonzero;stroke:none"
             d="M 0,0 C 0,0.266 0.215,0.481 0.481,0.481 0.746,0.481 0.962,0.266 0.962,0 0.962,-0.266 0.746,-0.481 0.481,-0.481 0.215,-0.481 0,-0.266 0,0" />
        </g>
        <g
           transform="translate(448.4388,302.513)"
           id="g174">
          <path
             id="path176"
             style="fill:#2256ae;fill-opacity:1;fill-rule:nonzero;stroke:none"
             d="M 0,0 C 0,0.266 0.215,0.481 0.481,0.481 0.746,0.481 0.962,0.266 0.962,0 0.962,-0.265 0.746,-0.481 0.481,-0.481 0.215,-0.481 0,-0.265 0,0" />
        </g>
        <g
           transform="translate(439.4672,302.4603)"
           id="g178">
          <path
             id="path180"
             style="fill:#2256ae;fill-opacity:1;fill-rule:nonzero;stroke:none"
             d="M 0,0 C 0,0.266 0.215,0.481 0.481,0.481 0.746,0.481 0.962,0.266 0.962,0 0.962,-0.266 0.746,-0.481 0.481,-0.481 0.215,-0.481 0,-0.266 0,0" />
        </g>
        <g
           transform="translate(444.4551,305.0173)"
           id="g182">
          <path
             id="path184"
             style="fill:#2256ae;fill-opacity:1;fill-rule:nonzero;stroke:none"
             d="m 0,0 c 0,0.266 0.215,0.481 0.481,0.481 0.265,0 0.48,-0.215 0.48,-0.481 0,-0.266 -0.215,-0.481 -0.48,-0.481 C 0.215,-0.481 0,-0.266 0,0" />
        </g>
        <g
           transform="translate(444.825,310.7773)"
           id="g186">
          <path
             id="path188"
             style="fill:#2256ae;fill-opacity:1;fill-rule:nonzero;stroke:none"
             d="m 0,0 c 0,0.266 0.215,0.481 0.481,0.481 0.265,0 0.48,-0.215 0.48,-0.481 0,-0.266 -0.215,-0.481 -0.48,-0.481 C 0.215,-0.481 0,-0.266 0,0" />
        </g>
        <g
           transform="translate(441.3799,325.055)"
           id="g190">
          <path
             id="path192"
             style="fill:#2256ae;fill-opacity:1;fill-rule:nonzero;stroke:none"
             d="M 0,0 C 0,0.266 0.215,0.481 0.481,0.481 0.746,0.481 0.962,0.266 0.962,0 0.962,-0.266 0.746,-0.481 0.481,-0.481 0.215,-0.481 0,-0.266 0,0" />
        </g>
        <g
           transform="translate(446.0034,326.2334)"
           id="g194">
          <path
             id="path196"
             style="fill:#2256ae;fill-opacity:1;fill-rule:nonzero;stroke:none"
             d="M 0,0 C 0,0.266 0.215,0.481 0.481,0.481 0.746,0.481 0.962,0.266 0.962,0 0.962,-0.266 0.746,-0.481 0.481,-0.481 0.215,-0.481 0,-0.266 0,0" />
        </g>
        <g
           transform="translate(473.0627,323.3326)"
           id="g198">
          <path
             id="path200"
             style="fill:#2256ae;fill-opacity:1;fill-rule:nonzero;stroke:none"
             d="M 0,0 C 0,0.266 0.215,0.481 0.481,0.481 0.746,0.481 0.962,0.266 0.962,0 0.962,-0.266 0.746,-0.481 0.481,-0.481 0.215,-0.481 0,-0.266 0,0" />
        </g>
        <g
           transform="translate(467.7822,300.3751)"
           id="g202">
          <path
             id="path204"
             style="fill:#2256ae;fill-opacity:1;fill-rule:nonzero;stroke:none"
             d="M 0,0 C 0,0.266 0.215,0.481 0.481,0.481 0.746,0.481 0.962,0.266 0.962,0 0.962,-0.266 0.746,-0.481 0.481,-0.481 0.215,-0.481 0,-0.266 0,0" />
        </g>
        <g
           transform="translate(466.1505,297.7006)"
           id="g206">
          <path
             id="path208"
             style="fill:#2256ae;fill-opacity:1;fill-rule:nonzero;stroke:none"
             d="M 0,0 C 0,0.266 0.215,0.481 0.481,0.481 0.746,0.481 0.962,0.266 0.962,0 0.962,-0.266 0.746,-0.481 0.481,-0.481 0.215,-0.481 0,-0.266 0,0" />
        </g>
        <g
           transform="translate(481.3799,320.4544)"
           id="g210">
          <path
             id="path212"
             style="fill:#2256ae;fill-opacity:1;fill-rule:nonzero;stroke:none"
             d="M 0,0 C 0,0.266 0.215,0.481 0.481,0.481 0.746,0.481 0.962,0.266 0.962,0 0.962,-0.265 0.746,-0.481 0.481,-0.481 0.215,-0.481 0,-0.265 0,0" />
        </g>
      </g>
    </g>
    <g
       id="g214">
      <g
         clip-path="url(#clipPath220)"
         id="g216">
        <g
           transform="translate(453.3283,306.4719)"
           id="g222">
          <path
             id="path224"
             style="fill:#2256ae;fill-opacity:1;fill-rule:evenodd;stroke:none"
             d="m 0,0 h 2.912 c 1.394,0 1.81,-0.832 1.81,-1.517 0,-1.052 -0.832,-1.958 -2.618,-1.958 h -2.838 z m -8.075,-13.311 h 5.285 l 1.273,6.093 h 2.324 c 1.493,0 2.178,-0.685 2.178,-1.591 0,-0.881 -0.269,-1.957 -0.269,-2.789 0,-0.783 0.024,-1.272 0.22,-1.713 h 5.138 c -0.44,1.028 -0.244,2.814 -0.244,4.453 0,1.64 -0.22,3.132 -1.811,3.573 v 0.049 c 2.52,0.416 4.086,2.275 4.086,4.82 0,3.695 -2.471,4.576 -5.701,4.576 h -8.857 z" />
        </g>
        <g
           transform="translate(470.0875,300.2813)"
           id="g226">
          <path
             id="path228"
             style="fill:#2256ae;fill-opacity:1;fill-rule:evenodd;stroke:none"
             d="M 0,0 C 0,2.594 1.052,6.411 4.282,6.411 6.386,6.411 6.998,4.82 6.998,3.23 6.998,0.636 5.946,-3.181 2.716,-3.181 0.612,-3.181 0,-1.59 0,0 m -5.383,0.122 c 0,-5.04 3.01,-7.658 7.952,-7.658 5.946,0 9.812,4.771 9.812,10.644 0,5.334 -3.009,7.658 -7.952,7.658 -5.946,0 -9.812,-4.771 -9.812,-10.644" />
        </g>
        <g
           transform="translate(363.5076,293.161)"
           id="g230">
          <path
             id="path232"
             style="fill:#2256ae;fill-opacity:1;fill-rule:nonzero;stroke:none"
             d="m 0,0 h 14.632 l 0.93,4.478 H 6.313 l 0.465,2.178 h 8.417 l 0.856,4.159 H 7.659 l 0.465,2.178 h 9.053 l 0.905,4.478 H 3.646 Z" />
        </g>
        <g
           transform="translate(380.9176,293.161)"
           id="g234">
          <path
             id="path236"
             style="fill:#2256ae;fill-opacity:1;fill-rule:nonzero;stroke:none"
             d="m 0,0 h 13.115 l 0.93,4.478 H 6.313 L 9.004,17.471 H 3.621 Z" />
        </g>
        <g
           transform="translate(395.9329,293.161)"
           id="g238">
          <path
             id="path240"
             style="fill:#2256ae;fill-opacity:1;fill-rule:nonzero;stroke:none"
             d="m 0,0 h 14.632 l 0.93,4.478 H 6.313 l 0.465,2.178 h 8.417 l 0.856,4.159 H 7.659 l 0.465,2.178 h 9.053 l 0.905,4.478 H 3.646 Z" />
        </g>
        <g
           transform="translate(416.9641,293.161)"
           id="g242">
          <path
             id="path244"
             style="fill:#2256ae;fill-opacity:1;fill-rule:nonzero;stroke:none"
             d="m 0,0 h 5.383 l 2.692,12.993 h 4.844 l 0.93,4.478 H -1.223 l -0.93,-4.478 h 4.845 z" />
        </g>
        <g
           transform="translate(432.944,293.161)"
           id="g246">
          <path
             id="path248"
             style="fill:#2256ae;fill-opacity:1;fill-rule:nonzero;stroke:none"
             d="m 0,0 h 5.383 l 2.692,12.993 h 4.844 l 0.93,4.478 H -1.223 l -0.93,-4.478 h 4.845 z" />
        </g>
        <g
           transform="translate(365.7207,284.9099)"
           id="g250">
          <path
             id="path252"
             style="fill:#2256ae;fill-opacity:1;fill-rule:nonzero;stroke:none"
             d="m 0,0 c -0.425,-1.872 0.399,-2.325 2.712,-2.325 h 3.08 c 3.378,0 4.22,0.381 4.748,2.707 0.572,2.515 -0.288,2.766 -4.241,2.754 -2.727,-0.012 -3.031,0.012 -2.86,0.763 0.105,0.465 0.54,0.668 1.113,0.668 h 2.816 c 1.169,0 1.178,-0.263 1.034,-0.895 h 2.542 l 0.062,0.275 C 11.35,5.461 11.311,6.498 8.379,6.498 H 4.83 C 1.624,6.498 1.213,5.294 0.859,3.732 0.377,1.609 0.704,1.132 4.528,1.132 7.803,1.132 8.09,1.085 7.919,0.334 7.767,-0.334 7.204,-0.394 6.666,-0.394 H 3.552 c -0.733,0 -1.072,0.072 -0.875,0.99 H 0.135 Z" />
        </g>
        <g
           transform="translate(380.4975,282.6801)"
           id="g254">
          <path
             id="path256"
             style="fill:#2256ae;fill-opacity:1;fill-rule:nonzero;stroke:none"
             d="M 0,0 H 9.217 L 9.688,2.075 H 3.013 L 3.327,3.458 H 9.51 L 9.916,5.246 H 3.733 l 0.314,1.383 h 6.526 l 0.455,2.003 H 1.96 Z" />
        </g>
        <g
           transform="translate(394.5004,282.6801)"
           id="g258">
          <path
             id="path260"
             style="fill:#2256ae;fill-opacity:1;fill-rule:evenodd;stroke:none"
             d="m 0,0 h 2.542 l 0.509,2.242 h 3.996 c 0.79,0 0.974,-0.298 0.768,-1.205 L 7.58,0 h 2.542 l 0.333,1.467 c 0.322,1.418 -0.229,1.764 -0.953,1.907 l 0.006,0.024 c 1.233,0.286 1.639,0.966 1.901,2.122 l 0.125,0.549 c 0.352,1.55 0.055,2.563 -1.903,2.563 H 1.96 Z M 4.015,6.486 H 7.988 C 8.789,6.486 9.123,6.343 8.95,5.58 L 8.885,5.294 C 8.744,4.674 8.427,4.388 7.74,4.388 H 3.538 Z" />
        </g>
        <g
           transform="translate(413.287,282.6801)"
           id="g262">
          <path
             id="path264"
             style="fill:#2256ae;fill-opacity:1;fill-rule:nonzero;stroke:none"
             d="M 0,0 H 3.137 L 9.551,8.632 H 6.769 L 2.072,2.218 0.288,8.632 h -2.782 z" />
        </g>
        <g
           transform="translate(425.1918,282.6801)"
           id="g266">
          <path
             id="path268"
             style="fill:#2256ae;fill-opacity:1;fill-rule:nonzero;stroke:none"
             d="m 0,0 h 2.542 l 1.96,8.632 H 1.96 Z" />
        </g>
        <g
           transform="translate(433.2937,285.7086)"
           id="g270">
          <path
             id="path272"
             style="fill:#2256ae;fill-opacity:1;fill-rule:nonzero;stroke:none"
             d="m 0,0 c -0.574,-2.528 0.653,-3.124 2.944,-3.124 h 4.099 c 2.553,0 3.316,1.145 3.647,2.599 l 0.184,0.811 H 8.332 C 8.088,-0.787 7.718,-0.906 6.573,-0.906 H 3.859 c -1.202,0 -1.346,0.477 -1.062,1.729 l 0.212,0.93 c 0.243,1.073 0.644,1.729 1.984,1.729 h 2.771 c 0.755,0 1.15,-0.179 1.009,-0.799 L 8.719,2.444 h 2.542 c 0.578,2.445 0.292,3.255 -3.326,3.255 H 4.947 c -2.29,0 -3.788,-0.596 -4.362,-3.124 z" />
        </g>
        <g
           transform="translate(448.2091,282.6801)"
           id="g274">
          <path
             id="path276"
             style="fill:#2256ae;fill-opacity:1;fill-rule:nonzero;stroke:none"
             d="M 0,0 H 9.217 L 9.688,2.075 H 3.013 L 3.327,3.458 H 9.51 L 9.916,5.246 H 3.733 l 0.314,1.383 h 6.526 l 0.455,2.003 H 1.96 Z" />
        </g>
        <g
           transform="translate(466.6249,284.8182)"
           id="g278">
          <path
             id="path280"
             style="fill:#2256ae;fill-opacity:1;fill-rule:nonzero;stroke:none"
             d="m 0,0 h -0.81 c -0.004,0.029 -0.008,0.051 -0.011,0.065 -0.016,0.166 -0.064,0.27 -0.144,0.311 -0.077,0.041 -0.266,0.061 -0.567,0.061 -0.432,0 -0.647,-0.139 -0.647,-0.419 0,-0.19 0.037,-0.303 0.112,-0.34 0.077,-0.036 0.335,-0.065 0.773,-0.086 0.59,-0.029 0.975,-0.108 1.153,-0.235 0.178,-0.128 0.267,-0.389 0.267,-0.784 0,-0.422 -0.119,-0.715 -0.357,-0.879 -0.237,-0.161 -0.662,-0.242 -1.276,-0.242 -0.59,0 -0.994,0.074 -1.211,0.221 -0.216,0.147 -0.325,0.421 -0.325,0.824 v 0.086 h 0.86 c -0.012,-0.048 -0.019,-0.086 -0.022,-0.115 -0.033,-0.306 0.203,-0.459 0.709,-0.459 0.523,0 0.784,0.152 0.784,0.455 0,0.292 -0.164,0.437 -0.492,0.437 -0.739,0 -1.227,0.07 -1.463,0.21 -0.234,0.14 -0.351,0.43 -0.351,0.871 0,0.395 0.108,0.663 0.322,0.802 0.214,0.14 0.626,0.21 1.236,0.21 0.576,0 0.962,-0.068 1.16,-0.203 C -0.1,0.656 0,0.393 0,0" />
        </g>
        <path
           id="path282"
           style="fill:#2256ae;fill-opacity:1;fill-rule:nonzero;stroke:none"
           d="m 468.193,282.314 h -0.828 v 0.889 h 0.828 z" />
        <g
           transform="translate(468.9918,285.7686)"
           id="g284">
          <path
             id="path286"
             style="fill:#2256ae;fill-opacity:1;fill-rule:nonzero;stroke:none"
             d="M 0,0 H 0.828 L 0.777,-0.484 0.795,-0.488 c 0.198,0.362 0.508,0.542 0.932,0.542 0.607,0 0.911,-0.383 0.911,-1.149 V -1.337 H 1.857 c 0.01,0.094 0.015,0.155 0.015,0.184 0,0.369 -0.143,0.553 -0.43,0.553 -0.41,0 -0.614,-0.273 -0.614,-0.82 V -3.455 H 0 Z" />
        </g>
        <path
           id="path288"
           style="fill:#2256ae;fill-opacity:1;fill-rule:nonzero;stroke:none"
           d="m 472.88,282.314 h -0.827 v 0.889 h 0.827 z" />
        <path
           id="path290"
           style="fill:#2256ae;fill-opacity:1;fill-rule:nonzero;stroke:none"
           d="m 474.485,282.314 h -0.828 v 4.933 h 0.828 z" />
        <path
           id="path292"
           style="fill:#2256ae;fill-opacity:1;fill-rule:nonzero;stroke:none"
           d="m 476.089,282.314 h -0.828 v 0.889 h 0.828 z" />
        <g
           transform="translate(389.0292,315.2037)"
           id="g294">
          <path
             id="path296"
             style="fill:#2256ae;fill-opacity:1;fill-rule:evenodd;stroke:none"
             d="m 0,0 c 0,-1.425 0.83,-2.241 2.248,-2.241 1.774,0 2.766,1.468 2.766,3.135 0,1.418 -0.879,2.17 -2.248,2.17 C 1.057,3.064 0,1.639 0,0 m 1.114,0 c 0,0.972 0.517,2.128 1.659,2.128 0.816,0 1.128,-0.603 1.128,-1.312 0,-0.958 -0.546,-2.121 -1.638,-2.121 -0.809,0 -1.149,0.61 -1.149,1.305" />
        </g>
        <g
           transform="translate(394.3282,313.0831)"
           id="g298">
          <path
             id="path300"
             style="fill:#2256ae;fill-opacity:1;fill-rule:evenodd;stroke:none"
             d="m 0,0 h 1.114 l 0.383,1.816 h 1.376 c 1.049,0 1.971,0.652 1.971,1.773 0,1.121 -0.737,1.468 -1.759,1.475 H 1.057 Z m 1.993,4.199 h 0.951 c 0.39,0 0.787,-0.121 0.787,-0.631 0,-0.603 -0.355,-0.887 -0.915,-0.887 H 1.681 Z" />
        </g>
        <g
           transform="translate(399.1319,313.0831)"
           id="g302">
          <path
             id="path304"
             style="fill:#2256ae;fill-opacity:1;fill-rule:nonzero;stroke:none"
             d="M 0,0 H 3.908 L 4.107,0.936 H 1.312 L 1.575,2.178 H 4.121 L 4.305,3.043 H 1.759 L 1.986,4.128 H 4.738 L 4.929,5.064 H 1.064 Z" />
        </g>
        <g
           transform="translate(405.9356,317.282)"
           id="g306">
          <path
             id="path308"
             style="fill:#2256ae;fill-opacity:1;fill-rule:evenodd;stroke:none"
             d="M 0,0 H 1.057 C 1.496,0 1.88,-0.078 1.88,-0.624 1.88,-1.192 1.319,-1.418 0.731,-1.425 h -1.029 z m -2,-4.199 h 1.113 l 0.419,1.979 h 1.05 c 0.439,0 0.73,-0.12 0.73,-0.61 0,-0.34 -0.056,-0.688 -0.056,-1.028 0,-0.114 0.021,-0.22 0.049,-0.341 H 2.39 c -0.057,0.149 -0.071,0.362 -0.071,0.589 0,0.312 0.036,0.652 0.036,0.879 0,0.398 -0.107,0.766 -0.525,0.894 v 0.014 c 0.681,0.1 1.163,0.674 1.163,1.362 0,0.979 -0.596,1.341 -1.511,1.327 h -2.418 z" />
        </g>
        <g
           transform="translate(409.1282,313.0831)"
           id="g310">
          <path
             id="path312"
             style="fill:#2256ae;fill-opacity:1;fill-rule:nonzero;stroke:none"
             d="M 0,0 H 3.908 L 4.107,0.936 H 1.312 L 1.575,2.178 H 4.121 L 4.305,3.043 H 1.759 L 1.986,4.128 H 4.738 L 4.929,5.064 H 1.064 Z" />
        </g>
        <g
           transform="translate(415.9748,313.0831)"
           id="g314">
          <path
             id="path316"
             style="fill:#2256ae;fill-opacity:1;fill-rule:nonzero;stroke:none"
             d="M 0,0 H 3.908 L 4.107,0.936 H 1.312 L 1.575,2.178 H 4.121 L 4.305,3.043 H 1.759 L 1.986,4.128 H 4.738 L 4.929,5.064 H 1.064 Z" />
        </g>
        <g
           transform="translate(420.7783,313.0831)"
           id="g318">
          <path
             id="path320"
             style="fill:#2256ae;fill-opacity:1;fill-rule:nonzero;stroke:none"
             d="M 0,0 H 3.568 L 3.766,0.936 H 1.319 L 2.185,5.064 H 1.064 Z" />
        </g>
        <g
           transform="translate(424.9216,313.0831)"
           id="g322">
          <path
             id="path324"
             style="fill:#2256ae;fill-opacity:1;fill-rule:nonzero;stroke:none"
             d="M 0,0 H 3.908 L 4.106,0.936 H 1.312 L 1.575,2.178 H 4.121 L 4.305,3.043 H 1.759 L 1.986,4.128 H 4.738 L 4.929,5.064 H 1.064 Z" />
        </g>
        <g
           transform="translate(430.86,313.0831)"
           id="g326">
          <path
             id="path328"
             style="fill:#2256ae;fill-opacity:1;fill-rule:nonzero;stroke:none"
             d="M 0,0 H 1.121 L 1.986,4.128 H 3.504 L 3.702,5.064 H -0.525 L -0.723,4.128 h 1.588 z" />
        </g>
        <g
           transform="translate(435.2653,313.0831)"
           id="g330">
          <path
             id="path332"
             style="fill:#2256ae;fill-opacity:1;fill-rule:nonzero;stroke:none"
             d="M 0,0 H 1.121 L 1.986,4.128 H 3.504 L 3.702,5.064 H -0.525 L -0.724,4.128 h 1.589 z" />
        </g>
        <g
           transform="translate(440.5356,317.282)"
           id="g334">
          <path
             id="path336"
             style="fill:#2256ae;fill-opacity:1;fill-rule:evenodd;stroke:none"
             d="m 0,0 h 1.057 c 0.44,0 0.823,-0.078 0.823,-0.624 0,-0.568 -0.56,-0.794 -1.149,-0.801 h -1.029 z m -2,-4.199 h 1.114 l 0.418,1.979 h 1.05 c 0.439,0 0.73,-0.12 0.73,-0.61 0,-0.34 -0.056,-0.688 -0.056,-1.028 0,-0.114 0.021,-0.22 0.049,-0.341 H 2.39 c -0.056,0.149 -0.071,0.362 -0.071,0.589 0,0.312 0.036,0.652 0.036,0.879 0,0.398 -0.106,0.766 -0.525,0.894 v 0.014 c 0.681,0.1 1.163,0.674 1.163,1.362 0,0.979 -0.596,1.341 -1.511,1.327 h -2.418 z" />
        </g>
        <g
           transform="translate(443.7283,313.0831)"
           id="g338">
          <path
             id="path340"
             style="fill:#2256ae;fill-opacity:1;fill-rule:nonzero;stroke:none"
             d="M 0,0 H 1.121 L 2.192,5.064 H 1.071 Z" />
        </g>
        <g
           transform="translate(450.985,316.3883)"
           id="g342">
          <path
             id="path344"
             style="fill:#2256ae;fill-opacity:1;fill-rule:nonzero;stroke:none"
             d="m 0,0 c 0.028,1.234 -0.858,1.88 -2.029,1.88 -1.709,0 -2.766,-1.426 -2.766,-3.065 0,-1.425 0.83,-2.241 2.249,-2.241 1.099,0 1.865,0.532 2.319,1.944 h -1.114 c -0.099,-0.532 -0.574,-1.007 -1.191,-1.007 -0.809,0 -1.149,0.61 -1.149,1.304 0,0.972 0.518,2.128 1.66,2.128 0.532,0 0.907,-0.319 0.907,-0.943 z" />
        </g>
        <g
           transform="translate(451.2274,313.0831)"
           id="g346">
          <path
             id="path348"
             style="fill:#2256ae;fill-opacity:1;fill-rule:nonzero;stroke:none"
             d="M 0,0 H 1.121 L 1.582,2.185 H 3.631 L 3.17,0 H 4.291 L 5.362,5.064 H 4.241 L 3.83,3.121 H 1.78 l 0.411,1.943 h -1.12 z" />
        </g>
        <g
           transform="translate(456.555,313.0831)"
           id="g350">
          <path
             id="path352"
             style="fill:#2256ae;fill-opacity:1;fill-rule:nonzero;stroke:none"
             d="M 0,0 H 3.908 L 4.107,0.936 H 1.312 L 1.575,2.178 H 4.121 L 4.305,3.043 H 1.759 L 1.986,4.128 H 4.738 L 4.93,5.064 H 1.064 Z" />
        </g>
        <g
           transform="translate(392.3592,321.9788)"
           id="g354">
          <path
             id="path356"
             style="fill:#ed1c24;fill-opacity:1;fill-rule:nonzero;stroke:none"
             d="M 0,0 -1.067,5.442 4.706,3.552 Z" />
        </g>
        <g
           transform="translate(449.0264,272.9466)"
           id="g358">
          <path
             id="path360"
             style="fill:#ed1c24;fill-opacity:1;fill-rule:nonzero;stroke:none"
             d="m 0,0 1.067,-5.442 -5.774,1.89 z" />
        </g>
        <g
           transform="translate(399.6121,327.5448)"
           id="g362">
          <path
             id="path364"
             style="fill:#ed1c24;fill-opacity:1;fill-rule:nonzero;stroke:none"
             d="m 0,0 c 6.756,0.945 13.956,1.455 21.429,1.455 41.664,0 70.266,-14.961 70.266,-31.13 0,-12.541 -17.132,-23.328 -41.803,-28.105 l -0.316,0.474 c 22.602,4.633 39.882,16.044 39.882,27.78 0,14.659 -30.965,28.675 -67.518,26.88 -7.482,-0.367 -14.583,-1.06 -21.293,-2.08 l 1.775,2.722 z" />
        </g>
        <g
           transform="translate(441.6944,266.9669)"
           id="g366">
          <path
             id="path368"
             style="fill:#ed1c24;fill-opacity:1;fill-rule:nonzero;stroke:none"
             d="m 0,0 c -6.756,-0.945 -13.956,-1.455 -21.429,-1.455 -41.664,0 -70.265,14.961 -70.265,31.13 0,12.541 17.131,23.327 41.801,28.105 l 0.317,-0.473 c -22.602,-4.634 -39.882,-16.045 -39.882,-27.781 0,-14.659 30.964,-28.675 67.517,-26.88 7.483,0.367 14.584,1.06 21.294,2.08 L -2.846,2.103 Z" />
        </g>
      </g>
    </g>
  </g>
</svg>
