<?xml version="1.0" encoding="UTF-8" standalone="no"?>
<svg
   xmlns:dc="http://purl.org/dc/elements/1.1/"
   xmlns:cc="http://creativecommons.org/ns#"
   xmlns:rdf="http://www.w3.org/1999/02/22-rdf-syntax-ns#"
   xmlns:svg="http://www.w3.org/2000/svg"
   xmlns="http://www.w3.org/2000/svg"
   xmlns:sodipodi="http://sodipodi.sourceforge.net/DTD/sodipodi-0.dtd"
   xmlns:inkscape="http://www.inkscape.org/namespaces/inkscape"
   inkscape:version="1.0 (4035a4fb49, 2020-05-01)"
   sodipodi:docname="noun-electrical-panel-box-7075078.svg"
   id="svg18"
   viewBox="-5.0 -10.0 110.0 135.0"
   version="1.1">
  <metadata
     id="metadata24">
    <rdf:RDF>
      <cc:Work
         rdf:about="">
        <dc:format>image/svg+xml</dc:format>
        <dc:type
           rdf:resource="http://purl.org/dc/dcmitype/StillImage" />
      </cc:Work>
    </rdf:RDF>
  </metadata>
  <defs
     id="defs22" />
  <sodipodi:namedview
     inkscape:current-layer="svg18"
     inkscape:window-maximized="1"
     inkscape:window-y="-8"
     inkscape:window-x="-8"
     inkscape:cy="23.418367"
     inkscape:cx="32.591837"
     inkscape:zoom="5.4444444"
     showgrid="false"
     id="namedview20"
     inkscape:window-height="1017"
     inkscape:window-width="1920"
     inkscape:pageshadow="2"
     inkscape:pageopacity="0"
     guidetolerance="10"
     gridtolerance="10"
     objecttolerance="10"
     borderopacity="1"
     bordercolor="#666666"
     pagecolor="#ffffff" />
  <path
     style="fill:#164194;fill-opacity:1"
     id="path2"
     d="m73.23 18h-46.461v7.8086c1.0586 0.39844 1.8203 1.4219 1.8203 2.6211v6.0781c0 1.1992-0.76172 2.2188-1.8203 2.6289v25.719c1.0586 0.41016 1.8203 1.4297 1.8203 2.6289v6.0781c0 1.1992-0.76172 2.2188-1.8203 2.6211v7.8086h46.461zm-40.719 20.91v-12.301c0-0.55078 0.44922-1 1-1h32.98c0.55078 0 1 0.44922 1 1v12.301c0 0.55078-0.44922 1-1 1h-32.98c-0.55078 0-1-0.44922-1-1zm22.758 19.871s0.10938 0 0.14062 0.050781c0.039063 0.039063 0.039063 0.10156 0.011719 0.14062l-11.871 16.941s-0.058593 0.050782-0.10156 0.050782c-0.019531 0-0.039063 0-0.058594-0.011719-0.050781-0.03125-0.078125-0.10156-0.058594-0.16016l3.9688-11.121-3.1914 1.4219s-0.10156 0-0.12891-0.019531c-0.039063-0.03125-0.058594-0.078125-0.050781-0.12891l3.5898-15.219s0.050781-0.078124 0.089844-0.089843l8.9102-2.3516s0.10156 0.011719 0.12891 0.050782c0.03125 0.03125 0.03125 0.089843 0 0.12891l-6.0117 11.898 4.6211-1.5781zm10.922-2.1328c-2.4414 0-4.4219-1.9805-4.4219-4.4219 0-2.4414 1.9805-4.4102 4.4219-4.4102s4.4219 1.9805 4.4219 4.4102c0 2.4297-1.9805 4.4219-4.4219 4.4219z" />
  <path
     style="fill:#164194;fill-opacity:1"
     id="path4"
     d="m34.512 27.609h30.98v10.301h-30.98z" />
  <path
     style="fill:#164194;fill-opacity:1"
     id="path6"
     d="m66.191 49.648c-1.4219 0-2.5781 1.1602-2.5781 2.5781 0 1.4219 1.1602 2.5898 2.5781 2.5898 1.4219 0 2.5781-1.1602 2.5781-2.5898 0-1.4297-1.1484-2.5781-2.5781-2.5781z" />
  <path
     style="fill:#164194;fill-opacity:1"
     id="path8"
     d="m18.77 14.07v71.859c0 2.2383 1.8281 4.0703 4.0703 4.0703h54.32c2.2383 0 4.0703-1.8281 4.0703-4.0703v-71.859c0-2.2383-1.8281-4.0703-4.0703-4.0703h-54.32c-2.2383 0-4.0703 1.8281-4.0703 4.0703zm4.1914 51.418c0-1.1992 0.75-2.2188 1.8086-2.6289v-25.719c-1.0586-0.41016-1.8086-1.4297-1.8086-2.6289v-6.0781c0-1.1992 0.75-2.2188 1.8086-2.6211v-8.8086c0-0.55078 0.44922-1 1-1h48.461c0.55078 0 1 0.44922 1 1v66c0 0.55078-0.44922 1-1 1l-48.461-0.003906c-0.55078 0-1-0.44922-1-1v-8.8086c-1.0586-0.39844-1.8086-1.4219-1.8086-2.6211z" />
  <path
     style="fill:#164194;fill-opacity:1"
     id="path10"
     d="m25.77 35.328c0.44922 0 0.82031-0.37109 0.82031-0.82031v-6.0781c0-0.44922-0.37109-0.82031-0.82031-0.82031s-0.80859 0.37109-0.80859 0.82031v6.0781c0 0.44922 0.35937 0.82031 0.80859 0.82031z" />
  <path
     style="fill:#164194;fill-opacity:1"
     id="path12"
     d="m25.77 72.391c0.44922 0 0.82031-0.37109 0.82031-0.82031v-6.0781c0-0.44922-0.37109-0.82031-0.82031-0.82031s-0.80859 0.37109-0.80859 0.82031v6.0781c0 0.44922 0.35937 0.82031 0.80859 0.82031z" />
  <text
     id="text14"
     fill="#000000"
     font-family="'Arbeit Regular', Helvetica, Arial-Unicode, Arial, Sans-serif"
     font-weight="bold"
     font-size="5px"
     y="117.5"
     x="0" />
  <text
     id="text16"
     fill="#000000"
     font-family="'Arbeit Regular', Helvetica, Arial-Unicode, Arial, Sans-serif"
     font-weight="bold"
     font-size="5px"
     y="122.5"
     x="0" />
</svg>
