<?xml version="1.0" encoding="UTF-8" standalone="no"?>
<svg
   xmlns:dc="http://purl.org/dc/elements/1.1/"
   xmlns:cc="http://creativecommons.org/ns#"
   xmlns:rdf="http://www.w3.org/1999/02/22-rdf-syntax-ns#"
   xmlns:svg="http://www.w3.org/2000/svg"
   xmlns="http://www.w3.org/2000/svg"
   xmlns:sodipodi="http://sodipodi.sourceforge.net/DTD/sodipodi-0.dtd"
   xmlns:inkscape="http://www.inkscape.org/namespaces/inkscape"
   inkscape:version="1.0 (4035a4fb49, 2020-05-01)"
   sodipodi:docname="lamp-40.svg"
   id="svg4"
   version="1.1"
   viewBox="0 0 1024 1024"
   style="width: 1em; height: 1em;vertical-align: middle;fill: currentColor;overflow: hidden;"
   class="svg-icon">
  <metadata
     id="metadata10">
    <rdf:RDF>
      <cc:Work
         rdf:about="">
        <dc:format>image/svg+xml</dc:format>
        <dc:type
           rdf:resource="http://purl.org/dc/dcmitype/StillImage" />
      </cc:Work>
    </rdf:RDF>
  </metadata>
  <defs
     id="defs8" />
  <sodipodi:namedview
     inkscape:current-layer="svg4"
     inkscape:window-maximized="1"
     inkscape:window-y="-8"
     inkscape:window-x="-8"
     inkscape:cy="512"
     inkscape:cx="512"
     inkscape:zoom="0.71777344"
     showgrid="false"
     id="namedview6"
     inkscape:window-height="1017"
     inkscape:window-width="1920"
     inkscape:pageshadow="2"
     inkscape:pageopacity="0"
     guidetolerance="10"
     gridtolerance="10"
     objecttolerance="10"
     borderopacity="1"
     bordercolor="#666666"
     pagecolor="#ffffff" />
  <path
     style="fill:#164194;fill-opacity:1"
     id="path2"
     d="M618.357841 841.712327c0 11.744485-9.530051 21.275559-21.270443 21.275559L426.909531 862.987886c-11.738345 0-21.270443-9.531074-21.270443-21.275559 0-11.740392 9.532097-21.270443 21.270443-21.270443l170.177867 0C608.827791 820.441884 618.357841 829.972958 618.357841 841.712327L618.357841 841.712327zM597.087399 873.624131 426.909531 873.624131c-13.993712 0-24.835641 13.513782-20.174482 28.204365 2.807952 8.859785 11.772115 14.340613 21.069875 14.340613l0.319272 0c12.283768 0 23.515576 6.942109 29.013801 17.929348l0.223081 0.448208c7.413853 14.806217 22.548552 24.163329 39.10974 24.163329l31.05632 0c16.564257 0 31.695886-9.358135 39.098483-24.163329l0.224104-0.448208c5.500271-10.987239 16.72901-17.929348 29.015847-17.929348l0.320295 0c9.292644 0 18.261922-5.479805 21.068851-14.340613C621.92304 887.137912 611.082134 873.624131 597.087399 873.624131L597.087399 873.624131zM511.998465 192.922894c11.743462 0 21.273513-9.530051 21.273513-21.270443L533.271978 86.560448c0-11.739369-9.530051-21.270443-21.273513-21.270443-11.741415 0-21.270443 9.531074-21.270443 21.270443l0 85.09098C490.728022 183.39182 500.25705 192.922894 511.998465 192.922894L511.998465 192.922894zM286.380938 273.913487c4.14439 4.157693 9.589402 6.235005 15.034415 6.235005s10.891048-2.076288 15.039531-6.235005c8.3072-8.3072 8.3072-21.770839 0-30.074969l-60.168358-60.169381c-8.293897-8.306176-21.782096-8.306176-30.074969 0-8.308223 8.3072-8.308223 21.772886 0 30.074969L286.380938 273.913487 286.380938 273.913487zM235.465315 469.455021c0-11.740392-9.531074-21.270443-21.271466-21.270443L129.103892 448.184579c-11.741415 0-21.270443 9.530051-21.270443 21.270443 0 11.744485 9.530051 21.274536 21.270443 21.274536l85.088934 0C225.933217 490.729557 235.465315 481.198483 235.465315 469.455021L235.465315 469.455021zM286.380938 665.001673l-60.168358 60.162218c-8.308223 8.3072-8.308223 21.773909 0 30.080086 4.14746 4.15974 9.594519 6.236028 15.039531 6.236028 5.443989 0 10.890025-2.075265 15.034415-6.236028l60.168358-60.168358c8.3072-8.306176 8.3072-21.771863 0-30.073946C308.16201 656.69345 294.673811 656.69345 286.380938 665.001673L286.380938 665.001673zM737.618039 665.001673c-8.3072-8.308223-21.772886-8.308223-30.075992 0-8.3072 8.30106-8.3072 21.766746 0 30.073946l60.164265 60.168358c4.157693 4.15974 9.594519 6.236028 15.039531 6.236028s10.881838-2.075265 15.039531-6.236028c8.3072-8.305153 8.3072-21.771863 0-30.080086L737.618039 665.001673 737.618039 665.001673zM894.890992 448.184579l-85.085864 0c-11.739369 0-21.269419 9.530051-21.269419 21.270443 0 11.744485 9.530051 21.274536 21.269419 21.274536l85.085864 0c11.744485 0 21.274536-9.530051 21.274536-21.274536C916.165528 457.714629 906.634454 448.184579 894.890992 448.184579L894.890992 448.184579zM722.578508 280.148491c5.445012 0 10.881838-2.076288 15.039531-6.235005l60.168358-60.169381c8.3072-8.30106 8.3072-21.766746 0-30.074969-8.3072-8.306176-21.771863-8.306176-30.080086 0l-60.164265 60.169381c-8.3072 8.303106-8.3072 21.766746 0 30.074969C711.68746 278.072203 717.133495 280.148491 722.578508 280.148491L722.578508 280.148491zM618.357841 788.533151c0 11.743462-9.530051 21.274536-21.270443 21.274536L426.909531 809.807686c-11.738345 0-21.270443-9.531074-21.270443-21.274536 0-11.32493 8.879228-20.503986 20.049638-21.142529-13.240559-119.700219-137.044236-146.358369-137.044236-287.296285 0-123.359562 99.997482-223.358067 223.353974-223.358067 123.357516 0 223.356021 99.998505 223.356021 223.358067 0 140.937916-123.800607 167.596066-137.043213 287.296285C609.475544 768.029164 618.357841 777.208221 618.357841 788.533151L618.357841 788.533151zM462.981075 316.40423c-3.308349-8.157797-12.595876-12.0832-20.784372-8.797363-54.362118 22.028713-95.573729 69.116147-110.243847 125.951597-2.200108 8.541537 2.933819 17.231453 11.465123 19.430538 1.333368 0.353041 2.669806 0.511653 3.988848 0.511653 7.106862 0 13.583366-4.773723 15.442714-11.962449 12.151761-47.095621 46.286186-86.108147 91.321892-104.352673C462.341508 333.8823 466.275097 324.58454 462.981075 316.40423L462.981075 316.40423zM462.981075 316.40423" />
</svg>
